<svg width="27" height="26" viewBox="0 0 27 26" fill="none" xmlns="http://www.w3.org/2000/svg">
<path d="M0.8625 12.8655C0.610417 12.5905 0.484375 12.264 0.484375 11.8858C0.484375 11.5077 0.610417 11.1812 0.8625 10.9062L4.7125 7.05615L3.23438 5.57803L2.82188 5.99053C2.54688 6.26553 2.22031 6.40303 1.84219 6.40303C1.46406 6.40303 1.1375 6.26553 0.8625 5.99053C0.610417 5.71553 0.484375 5.38896 0.484375 5.01084C0.484375 4.63271 0.610417 4.31761 0.8625 4.06553L3.6125 1.31553C3.8875 1.04053 4.21406 0.903027 4.59219 0.903027C4.97031 0.903027 5.29688 1.04053 5.57188 1.31553C5.84688 1.56761 5.98438 1.88844 5.98438 2.27803C5.98438 2.66761 5.84688 2.98844 5.57188 3.24053L5.15938 3.65303L6.6375 5.13115L10.4875 1.28115C10.7625 1.00615 11.0891 0.868652 11.4672 0.868652C11.8453 0.868652 12.1719 1.00615 12.4469 1.28115C12.7219 1.55615 12.8594 1.88271 12.8594 2.26084C12.8594 2.63896 12.7219 2.96553 12.4469 3.24053L11.5188 4.13428L13.65 6.26553L9.76563 10.1155C9.51354 10.3905 9.3875 10.7171 9.3875 11.0952C9.3875 11.4733 9.51354 11.7999 9.76563 12.0749C10.0406 12.3499 10.3672 12.4874 10.7453 12.4874C11.1234 12.4874 11.45 12.3499 11.725 12.0749L15.575 8.19053L17.6719 10.253L13.7875 14.1374C13.5125 14.4124 13.375 14.739 13.375 15.1171C13.375 15.4952 13.5125 15.8218 13.7875 16.0968C14.0396 16.3489 14.3547 16.4692 14.7328 16.4577C15.1109 16.4463 15.4375 16.3145 15.7125 16.0624L19.5625 12.178L21.6594 14.2749C22.1865 14.802 22.45 15.4494 22.45 16.2171C22.45 16.9848 22.1865 17.6322 21.6594 18.1593L20.6969 19.1562L26.025 24.4499C26.2542 24.6791 26.3115 24.9312 26.1969 25.2062C26.0823 25.4812 25.8646 25.6187 25.5437 25.6187H24.1344C23.8594 25.6187 23.5901 25.5614 23.3266 25.4468C23.063 25.3322 22.8396 25.1832 22.6563 24.9999L18.7375 21.0812L17.775 22.078C17.2479 22.6051 16.6005 22.8687 15.8328 22.8687C15.0651 22.8687 14.4177 22.6051 13.8906 22.078L3.75 11.9374L2.82188 12.8655C2.54688 13.1176 2.22031 13.2437 1.84219 13.2437C1.46406 13.2437 1.1375 13.1176 0.8625 12.8655Z" fill="#175696"/>
</svg>
